<svg xmlns="http://www.w3.org/2000/svg" viewBox="-50 -50 100 100">
    <style>
    svg {background-color: white;}
    path {stroke: black;}
    @media (prefers-color-scheme: dark) {
        svg {background-color: black;}
        path {stroke: white;}
    }
    </style>
    <path d="M 0 0 L 50 0 M 0 0 L 35.35533905932738 35.35533905932737 M 0 0 L 3.061616997868383e-15 50 M 0 0 L -35.35533905932737 35.35533905932738 M 0 0 L -50 6.123233995736766e-15 M 0 0 L -35.355339059327385 -35.35533905932737 M 0 0 L -9.184850993605149e-15 -50 M 0 0 L 35.35533905932737 -35.355339059327385 M 0 0 L 28.549447630116934 11.825568406654853 M 0 0 L 11.825568406654854 28.549447630116934 M 0 0 L -11.82556840665485 28.549447630116934 M 0 0 L -28.549447630116934 11.825568406654856 M 0 0 L -28.549447630116937 -11.825568406654849 M 0 0 L -11.825568406654869 -28.549447630116926 M 0 0 L 11.825568406654833 -28.54944763011694 M 0 0 L 28.549447630116926 -11.82556840665487 M 0 0 L 39.67359798395057 7.891569297456435 M 0 0 L 33.6336523329554 22.473288004085386 M 0 0 L 22.47328800408539 33.6336523329554 M 0 0 L 7.891569297456439 39.67359798395057 M 0 0 L -7.891569297456433 39.67359798395057 M 0 0 L -22.473288004085376 33.6336523329554 M 0 0 L -33.633652332955386 22.4732880040854 M 0 0 L -39.67359798395057 7.89156929745645 M 0 0 L -39.67359798395058 -7.891569297456422 M 0 0 L -33.63365233295541 -22.473288004085376 M 0 0 L -22.473288004085386 -33.6336523329554 M 0 0 L -7.891569297456416 -39.67359798395058 M 0 0 L 7.891569297456472 -39.67359798395057 M 0 0 L 22.473288004085433 -33.633652332955364 M 0 0 L 33.633652332955435 -22.473288004085326 M 0 0 L 39.67359798395059 -7.891569297456349"/>
</svg>
