<?xml version="1.0" encoding="UTF-8"?>
<svg width="1200pt" height="1200pt" version="1.1" viewBox="0 0 1200 1200" xmlns="http://www.w3.org/2000/svg">
 <path d="m1070.4 779.7c-6.2656 10.871-14.172 21.227-23.734 30.973-100.2 102.25-359.52 113.99-446.66 114.97-87.145-0.98438-346.45-12.73-446.65-114.97-9.5625-9.7578-17.461-20.102-23.734-30.973-164.66 88.008 42.812 204.21 42.812 204.21 34.57 23.762 276.49 159.85 276.49 159.85 104.99 58.777 148.73 56.34 151.09 56.172 2.3633 0.17969 46.117 2.6172 151.11-56.172 0 0 241.92-136.09 276.49-159.85-0.003906 0 207.46-116.21 42.789-204.21z"/>
 <path d="m599.89 110.7c0.035156 0.011719 0.070312 0.011719 0.10938 0.011719h0.12109l-0.003907-0.011719c72.41-0.011719 123.05-8.0977 148.86-15.66h2.2695c-3.5625-3.168-10.703-6.8281-23.914-10.789l-102.6-75.609s-5.3633-8.5664-24.613-8.6406h-0.12109-0.10938c-19.246 0.070312-24.625 8.6406-24.625 8.6406l-102.6 75.613c-13.223 3.9609-20.352 7.6328-23.914 10.789h2.2695c25.84 7.5586 76.465 15.645 148.88 15.656z"/>
 <path d="m537.48 285.31c7.0547 0 13.094 2.7969 18.66 6.0234 7.7891-8.2422 17.27-11.195 25.379-12.59v-0.75781c-3.5273-0.64844-7.1875-1.5469-10.895-2.7109-6.2539-1.9453-11.797-4.6328-16.703-6.9961-3.1094-1.5-6.0234-2.9023-8.7852-3.9727-4.3789-1.7031-7.5469-2.4258-10.57-2.4258-2.7734 0-5.6172 0.63672-8.6758 1.9453-7.2461 3.0977-9.9102 7.9688-9.5391 17.398 0.15625 4.0078 1.1289 8.6289 2.7617 13.32 0.22656-0.34766 0.45703-0.68359 0.71875-1.0078 2.3047-2.9883 7.2227-6.625 11.438-7.5586 2.0977-0.42969 4.1836-0.66797 6.2109-0.66797z"/>
 <path d="m530.27 394.5c-0.023438-0.15625-0.058594-0.3125-0.097657-0.46875-0.10938-0.011719-0.22656-0.023438-0.32422-0.035156 0.13281 0.16797 0.27734 0.32422 0.42188 0.50391z"/>
 <path d="m668.9 394.25c-0.097657 0.011718-0.19141 0.023437-0.27734 0.035156-0.023438 0.13281-0.046875 0.25391-0.070313 0.38281 0.12109-0.14062 0.23828-0.27344 0.34766-0.41797z"/>
 <path d="m645.22 290.75c4.7891-3.0234 8.5664-5.4258 14.398-5.4258 1.7773 0 3.6953 0.22656 5.7969 0.69531 4.2344 0.9375 9.1445 4.5703 11.449 7.5586 0.25391 0.3125 0.48047 0.64844 0.69531 0.98438 1.6445-4.7031 2.6055-9.2891 2.7617-13.297 0.35938-9.4336-2.3047-14.305-9.5508-17.398-3.0586-1.3086-5.8789-1.9453-8.6641-1.9453-3.0352 0-6.2031 0.73047-10.586 2.4258-2.7461 1.0664-5.6875 2.4727-8.7734 3.9727-4.8945 2.3633-10.453 5.0508-16.715 6.9961-3.707 1.1641-7.3555 2.0625-10.883 2.7109v0.70703c8.9766 1.4141 20.461 4.4297 29.074 12.672 0.34766-0.23438 0.67188-0.44922 0.99609-0.65625z"/>
 <path d="m599.89 886.67h0.10938 0.12109c83.305-1.2227 330.04-12.637 418.79-103.22 14.797-15.121 24.121-31.441 28.117-49.441-0.25391-46.848-8.9883-529.81-261.41-617.47-13.43 9.0352-33.805 14.23-52.586 17.891-35.711 6.9844-82.945 10.824-133.03 10.836-50.074-0.011718-97.309-3.8516-133.02-10.836-18.781-3.6719-39.156-8.8555-52.586-17.891-252.43 87.66-261.16 570.62-261.41 617.47 3.9961 18 13.309 34.32 28.117 49.441 88.754 90.586 335.48 102 418.79 103.22zm-220.79-347.94c11.688-4.6094 24.84-6.7695 41.375-6.793-5.0391-1.5117-9.9258-3.6367-14.578-6.6719-1.0547-0.68359-1.6211-1.8828-1.4883-3.1328 0.13281-1.2461 0.94922-2.293 2.125-2.7461 6.8633-2.6055 14.258-3.875 22.559-3.875 0.52734 0 1.0547 0.011719 1.5859 0.023438-3.3008-1.4766-6.4062-3.168-9.3125-5.0742-0.96094-0.63672-1.5234-1.7148-1.5-2.8438 0.035157-1.1523 0.66016-2.207 1.6445-2.7734 4.9453-2.8906 10.332-4.2969 16.477-4.2969 0.40625 0 0.80469 0.011719 1.2227 0.023437-3.0586-1.9688-5.8789-4.3906-8.3281-7.4414-0.69531-0.875-0.91016-2.0391-0.57422-3.0977 0.34766-1.0664 1.1992-1.8828 2.2695-2.1836 3.2148-0.88672 6.5898-1.3438 10.02-1.3438 1.4414 0 2.8555 0.085938 4.2617 0.22656-3.4062-2.4375-6.457-5.4375-8.9023-9.2383-0.60156-0.9375-0.70703-2.1133-0.25391-3.1211 0.44531-1.0195 1.3555-1.7539 2.4492-1.9453 2.0625-0.37109 4.1875-0.55078 6.2891-0.55078 2.1836 0 4.3203 0.19141 6.4336 0.55078-3.6836-2.9883-6.8516-6.6367-9.1445-11.258-0.48047-0.97266-0.45703-2.1367 0.070313-3.0859s1.4883-1.5859 2.5664-1.6914c1.1172-0.10938 2.2578-0.16797 3.3594-0.16797 2.8438 0 5.5781 0.34766 8.207 0.97266-4.4531-3.875-8.3516-8.3984-11.316-13.957-0.53906-1.0312-0.51562-2.2578 0.085938-3.2539 0.60156-0.99609 1.668-1.6211 2.8203-1.6211h0.21484c4.3203 0 8.3867 0.76953 12.238 2.0898-5.7852-5.5547-10.766-11.891-14.137-19.727-0.48047-1.1406-0.28906-2.4492 0.49219-3.4062 0.78125-0.94922 2.0391-1.3906 3.2539-1.1406 5.1133 1.0781 9.793 2.8789 14.184 5.1836-9.5742-9.8164-18.18-20.566-24.348-33.203-0.61328-1.2344-0.38281-2.7227 0.5625-3.7305 0.9375-0.99609 2.4102-1.3086 3.6836-0.78125 13.176 5.4844 23.941 14.102 33.695 23.746-2.375-4.4297-4.2969-9.1562-5.6172-14.258-0.30078-1.2227 0.097656-2.5078 1.0547-3.3359 0.96094-0.81641 2.3047-1.0195 3.4688-0.52734 8.1016 3.4805 14.641 8.7109 20.34 14.746-1.4141-3.707-2.4375-7.5977-2.9297-11.746-0.14453-1.1641 0.33594-2.3047 1.2617-3.0117 0.92578-0.71875 2.1602-0.88672 3.2383-0.45703 6.1562 2.4258 10.945 6.2031 14.965 10.691-0.96094-3.7305-1.4531-7.6211-1.332-11.699 0.035156-1.1289 0.66016-2.1719 1.6445-2.7461 0.98438-0.58984 2.1953-0.61328 3.2031-0.085937 0.82812 0.42187 1.6211 0.875 2.3867 1.3438-0.28906-1.1758-0.43359-2.4609-0.40625-3.8398 0.085937-4.6797 2.3516-10.992 6.457-12.047l-0.23828-1.0312c-2.8789-0.68359-4.9062-1.7031-6.0586-3.0469-2.7734-3.2539-2.5195-6.3594-1.8125-9.2266 0.63672-2.6289 3.0859-4.9688 3.8164-5.6172 0.035157-0.035156 0.058594-0.058594 0.097657-0.085938l-2.5547-11.617c-0.13281-0.30078-0.25391-0.61328-0.37109-0.88672-3.8867-1.2461-6.6953-4.9062-6.6953-9.1328 0-1.1992 0.22656-2.3516 0.64844-3.457-1.4531-2.7227-3-5.5664-4.1758-7.7148-1.6914 1.4648-3.8867 2.3516-6.2891 2.3516-5.2812 0-9.5742-4.2852-9.5742-9.5742 0-1.3789 0.28906-2.6992 0.81641-3.8867-3.4219-1.4648-5.8203-4.8594-5.8203-8.8086 0-1.7383 0.45703-3.3477 1.2617-4.7539-2.3984-1.7383-3.9609-4.5703-3.9609-7.7539 0-2.4375 0.91016-4.6562 2.4102-6.3477-1.5-1.6914-2.4102-3.9102-2.4102-6.3477 0-3.6133 2.0156-6.7578 4.9688-8.3867-0.60156-1.2461-0.92578-2.6523-0.92578-4.1289 0-4.7148 3.4219-8.6523 7.9219-9.4336-0.023438-0.25391-0.035157-0.50391-0.035157-0.75781 0-5.2812 4.2969-9.5742 9.5898-9.5742 0.45703 0 0.89844 0.035156 1.3555 0.097656 1.1172-4.043 4.8242-7.0312 9.2266-7.0312 1.7891 0 3.457 0.49219 4.8945 1.3438 1.7383-2.4375 4.5859-4.043 7.8008-4.043 2.6523 0 5.0508 1.0938 6.7812 2.8203 1.6328-1.2852 3.6953-2.0508 5.9141-2.0508 3.625 0 6.7695 2.0156 8.3984 4.9688 1.2461-0.58984 2.6406-0.92578 4.1172-0.92578 4.0312 0 7.4766 2.4961 8.8906 6.0234 0.89844-0.28906 1.8477-0.44531 2.8438-0.44531 3.6836 0 6.8867 2.0898 8.4844 5.1484 0.92578-0.37109 1.9219-0.61328 2.9648-0.68359-0.23828-0.83984-0.39453-1.7031-0.51562-2.5781-0.57422-0.92578-0.875-1.9922-0.875-3.1094v-1.2227c0-1.4883 0.57422-2.9141 1.5586-4.0195 0.88672-2.9141 2.4492-5.543 4.4766-7.7148-1.2344-0.19141-2.2812-1.0664-2.6758-2.2812 0-0.035156-0.023438-0.070313-0.023438-0.10938-0.20312-0.058594-0.38281-0.13281-0.57422-0.22656-1.1992-0.625-1.8945-1.9062-1.7656-3.2539 0.66016-7.1523 0.66016-14.566 0-22.68-0.12109-1.4141 0.67188-2.7461 1.9688-3.3008 0.20312-0.085937 0.40625-0.15625 0.625-0.20312 0.023437-0.12109 0.058593-0.23828 0.097656-0.34766 0.40625-1.2461 1.5234-2.1367 2.832-2.2578 4.5586-0.42188 9.2148-0.64844 13.836-0.64844s9.3359 0.22656 14.027 0.64844c1.2734 0.12109 2.3633 0.96094 2.8086 2.1602 0.035157 0.097656 0.058594 0.17969 0.085938 0.26562 0.25391 0.058593 0.48047 0.14453 0.70703 0.25391 1.2461 0.63672 1.957 1.9805 1.7773 3.3594-0.75781 5.9883-0.46875 11.941-0.16797 18.254 0.070313 1.4141 0.14453 2.832 0.20312 4.2461 0.046875 1.2969-0.67188 2.5078-1.8242 3.0859-0.16797 0.097656-0.32422 0.15625-0.50391 0.21484-0.023437 0.14453-0.046875 0.28906-0.097656 0.43359-0.34766 1.2461-1.3906 2.1719-2.6523 2.3633 2.0273 2.1719 3.5898 4.7773 4.4766 7.6914 1.0078 1.0938 1.5703 2.5312 1.5703 4.0547v1.2227c0 1.1289-0.30078 2.207-0.86328 3.1445-0.12109 0.86328-0.28906 1.7148-0.52734 2.543 1.043 0.070313 2.0391 0.30078 2.9648 0.68359 1.6094-3.0586 4.8008-5.1484 8.4844-5.1484 0.99609 0 1.957 0.15625 2.8555 0.44531 1.4023-3.5273 4.8594-6.0234 8.8789-6.0234 1.4766 0 2.8672 0.33594 4.1289 0.92578 1.6328-2.9531 4.7773-4.9688 8.3867-4.9688 2.2422 0 4.2852 0.75781 5.9141 2.0508 1.7383-1.7383 4.1406-2.8203 6.7812-2.8203 3.2266 0 6.0859 1.6094 7.8125 4.043 1.4297-0.85156 3.1094-1.3438 4.8828-1.3438 4.4023 0 8.125 2.9883 9.2383 7.0312 0.44531-0.058594 0.89844-0.097656 1.3555-0.097656 5.2812 0 9.5742 4.2852 9.5742 9.5742 0 0.25391-0.011719 0.51562-0.035157 0.75781 4.5 0.78125 7.9336 4.7266 7.9336 9.4336 0 1.4766-0.33594 2.8672-0.9375 4.1289 2.9648 1.6328 4.9805 4.7773 4.9805 8.3867 0 2.4375-0.92578 4.668-2.4258 6.3477 1.5 1.7031 2.4258 3.9102 2.4258 6.3477 0 3.1914-1.5703 6.0234-3.9727 7.7539 0.80469 1.4023 1.2617 3.0234 1.2617 4.7539 0 3.9492-2.3984 7.3438-5.8203 8.8086 0.52734 1.1992 0.81641 2.5078 0.81641 3.8867 0 5.2812-4.2852 9.5742-9.5742 9.5742-2.3984 0-4.6094-0.88672-6.2891-2.3516-1.1758 2.1484-2.7227 4.9922-4.1641 7.7148 0.42188 1.1055 0.63672 2.2578 0.63672 3.457 0 4.2227-2.7969 7.8828-6.6953 9.1328-0.10937 0.25391-0.22656 0.53906-0.33594 0.80469l-2.5195 11.746c0.011718 0.011719 0.011718 0.023438 0.023437 0.035157 0.74219 0.64844 3.1914 2.9883 3.8164 5.6172 0.70703 2.8555 0.97266 5.9648-1.8125 9.2266-0.44531 0.52734-1.6914 1.9805-5.8789 3l-0.28906 1.3906c5.5078 2.7852 7.1992 10.117 5.9648 15.719-0.19141 0.80469-0.42187 1.5703-0.70703 2.2695 1.8828-1.2617 3.9844-2.3281 6.3242-3.1328 1.043-0.35937 2.1953-0.17969 3.0703 0.48047 0.875 0.66016 1.3672 1.7148 1.3203 2.8086-0.19141 3.7305-0.81641 7.2734-1.7891 10.691 3.8516-4.3203 8.3281-8.1016 13.727-10.906 1.0312-0.53906 2.2578-0.50391 3.2539 0.10938 0.99609 0.60156 1.5977 1.6797 1.5977 2.832 0 4.3438-0.75781 8.375-2.0156 12.18 5.7969-5.9297 12.422-11.016 20.27-14.461 1.1641-0.50391 2.5195-0.30078 3.4805 0.51562 0.97266 0.82813 1.3672 2.1367 1.0547 3.3594-1.3438 5.125-3.3008 9.8633-5.7227 14.328 9.6133-9.4336 20.148-17.93 32.734-23.773 1.2461-0.57422 2.7109-0.32422 3.6953 0.625s1.2852 2.4102 0.75781 3.6719c-5.375 12.805-13.703 23.449-23.125 33.086 4.1992-2.1719 8.6992-3.8516 13.586-4.8828 1.2109-0.25391 2.4492 0.17969 3.2383 1.1289 0.79297 0.94922 0.98438 2.2578 0.50391 3.3828-3.2656 7.8125-8.207 14.148-13.957 19.668 3.6016-1.2969 7.3789-2.1953 11.426-2.5664 1.1523-0.10938 2.2695 0.39453 2.9648 1.332 0.69531 0.92578 0.82813 2.1484 0.39453 3.2266-2.4102 5.8789-6.1211 10.656-10.523 14.664 2.875-0.66406 5.8906-1.0703 9.0586-1.0703 0.79297 0 1.6094 0.035156 2.3984 0.085938 1.0938 0.070312 2.0898 0.68359 2.6406 1.6328 0.55078 0.9375 0.61328 2.1016 0.14453 3.0859-2.2578 4.8125-5.4844 8.5664-9.2539 11.629 2.1602-0.34766 4.332-0.53906 6.5625-0.53906 2.0039 0 4.0195 0.16797 5.9883 0.46875 1.1289 0.19141 2.0898 0.92578 2.5195 1.9805 0.45703 1.0547 0.32422 2.2578-0.32422 3.1914-2.6055 3.7188-5.7461 6.7578-9.2031 9.2266 1.5859-0.17969 3.1914-0.26562 4.8008-0.26562 3.4336 0 6.8164 0.44531 10.043 1.332 1.0938 0.30078 1.9453 1.1289 2.2812 2.207 0.33594 1.0664 0.10938 2.2422-0.61328 3.1094-2.6055 3.1445-5.5938 5.6406-8.832 7.6562 0.99609-0.046875 1.9805-0.085937 2.9766-0.085937 5.0508 0 9.6836 0.76953 14.137 2.3516 1.0664 0.37109 1.8594 1.2617 2.125 2.3633 0.25391 1.0938-0.058594 2.2578-0.83984 3.0586-2.9141 3.0117-6.1797 5.3281-9.6602 7.1289 0.63672-0.011719 1.2461-0.023438 1.8828-0.023438 8.1602 0 15.395 1.2109 22.129 3.6953 1.1758 0.43359 2.0039 1.4883 2.1484 2.7461 0.14453 1.2461-0.43359 2.4492-1.4766 3.1445-4.7539 3.0977-9.7305 5.293-14.879 6.8516 16.379 0.085938 29.641 1.957 41.617 5.8672 1.3086 0.43359 2.2305 1.6328 2.2695 3.0117 0.058594 1.3789-0.75781 2.6641-2.0273 3.2031-11.543 4.8242-24.625 7.0781-41.16 7.0781h-0.25391c4.9062 1.5 9.6836 3.5625 14.23 6.4336 1.0547 0.66016 1.6562 1.8477 1.5469 3.0977-0.12109 1.2344-0.88672 2.3047-2.0391 2.7734-6.7422 2.7617-14.039 4.1172-22.344 4.1172-0.40625 0-0.81641-0.011719-1.2227-0.011719 3.0352 1.3555 5.8906 2.9141 8.6055 4.668 0.9375 0.61328 1.5 1.6445 1.5117 2.7461 0.011718 1.1172-0.52734 2.1602-1.4531 2.7852-4.8359 3.2656-10.246 4.8594-16.547 4.8594h-0.75781c3.0117 1.9219 5.7969 4.2852 8.2422 7.2461 0.71875 0.86328 0.94922 2.0273 0.61328 3.0977-0.32422 1.0664-1.1875 1.8945-2.2578 2.207-3.2656 0.92578-6.707 1.4023-10.199 1.4023-1.4297 0-2.832-0.085937-4.2461-0.22656 3.3945 2.4102 6.4336 5.375 8.8789 9.1445 0.61328 0.9375 0.70703 2.1133 0.25391 3.1328-0.45703 1.0195-1.3789 1.7539-2.4727 1.9453-2.0508 0.34766-4.1523 0.52734-6.2383 0.52734-2.2188 0-4.3789-0.20312-6.5156-0.55078 3.7578 3.0352 6.9844 6.7578 9.3008 11.473 0.49219 0.98438 0.45703 2.1484-0.085938 3.0977-0.53906 0.94922-1.5234 1.5859-2.6172 1.668-0.96094 0.085937-1.9336 0.12109-2.8906 0.12109-3.0586 0-5.9766-0.38281-8.7734-1.0664 4.4297 3.9609 8.2695 8.6172 11.027 14.258 0.50391 1.0547 0.42188 2.3047-0.23828 3.2891-0.66016 0.97266-1.7656 1.5352-2.9414 1.4648-4.2461-0.25391-8.2812-1.1289-12.145-2.4609 5.832 5.5547 10.883 11.902 14.293 19.727 0.49219 1.1289 0.3125 2.4375-0.45703 3.4062-0.78125 0.94922-2.0273 1.4023-3.2539 1.1641-5.125-1.043-9.8047-2.8086-14.195-5.1016 9.5508 9.7305 18.059 20.426 23.809 33.203 0.5625 1.2617 0.28906 2.7461-0.68359 3.7188-0.98438 0.97266-2.4609 1.2461-3.7188 0.67188-12.781-5.8203-23.449-14.41-33.168-23.988 2.4727 4.4883 4.5117 9.2539 5.9414 14.387 0.32422 1.2227-0.058594 2.5195-0.99609 3.3594-0.9375 0.82813-2.2812 1.0664-3.4453 0.58984-8.0898-3.2773-14.641-8.3047-20.328-14.23 1.2969 3.7422 2.1133 7.7266 2.2305 12.023 0.035157 1.1641-0.53906 2.2578-1.5117 2.8789-0.97266 0.625-2.2188 0.70703-3.2539 0.19141-5.6641-2.7734-10.246-6.5625-14.16-10.945 0.99609 3.8164 1.5117 7.7773 1.4141 11.93-0.035156 1.1523-0.66016 2.207-1.6445 2.7734-0.99609 0.58984-2.2305 0.61328-3.2383 0.070312-4.7031-2.5195-8.4961-5.832-11.641-9.6484 0.66016 4.0078 0.68359 8.1719-0.28906 12.539-0.23828 1.0547-0.97266 1.9336-1.9805 2.3398-1.0078 0.40625-2.1484 0.30078-3.0586-0.27734-3.7188-2.4102-6.6016-5.3281-8.9414-8.6055 0.60156 4.5352 0.58984 9.1797-0.37109 13.992-0.21484 1.0938-0.96094 1.9922-1.9805 2.4102-1.0312 0.42188-2.1953 0.30078-3.1211-0.3125-3.9258-2.6523-6.8633-5.9141-9.1445-9.5508 0.45703 5.8555 0.23828 11.785-1.0938 17.809-0.25391 1.1641-1.1172 2.1016-2.2422 2.4492-1.1289 0.34766-2.3516 0.085937-3.2383-0.71875-3.5391-3.2383-6.1914-6.9258-8.1953-10.895 0.16797 7.9805-0.63672 15.973-3.1094 23.902-0.35938 1.1875-1.3672 2.0625-2.5938 2.2695-1.2344 0.21484-2.4609-0.26563-3.2148-1.2617-3.1328-4.1406-5.3516-8.5195-6.9375-13.066-0.15625 10.176-1.0664 20.363-3.5273 30.422-0.058593 0.22656-0.13281 0.43359-0.23828 0.64844-0.22656 0.46875-0.39453 1.3086-0.5625 2.1367-0.49219 2.3984-1.2461 6.0586-5.0156 7.5469-0.39453 0.16797-0.81641 0.23828-1.2344 0.23828-0.48047 0-0.96094-0.10938-1.4023-0.3125-0.82813-0.38281-1.4648-1.1055-1.7539-1.9688-4.1641-12.816-5.5078-26.027-5.6875-39.254-1.6797 4.9336-4.0664 9.6719-7.5 14.09-0.75781 0.97266-2.0039 1.4531-3.2383 1.2227-1.2227-0.22656-2.207-1.1172-2.5547-2.3047-2.375-8.0742-3.0117-16.176-2.7461-24.215-1.9219 3.9609-4.4883 7.668-7.9453 11.004-0.86328 0.82812-2.1016 1.1406-3.2539 0.78125-1.1523-0.33594-2.0273-1.2734-2.2812-2.4492-1.3906-6.1797-1.6445-12.254-1.1758-18.254-2.2578 3.8516-4.9688 7.2461-8.1133 10.188-0.83984 0.78125-2.0508 1.0781-3.168 0.75781-1.1289-0.32422-1.9805-1.2109-2.2812-2.3164-1.3906-5.1719-1.5977-10.164-1.043-15.023-2.6523 3.4922-6.0469 6.4336-10.621 8.4258-0.97266 0.42188-2.1133 0.34766-3.0234-0.20312-0.91016-0.55078-1.5117-1.5117-1.5977-2.5781-0.3125-4.0195 0.011719-7.8477 0.76953-11.543-3.1562 3.7305-6.9258 6.9375-11.555 9.3711-1.0195 0.52734-2.2422 0.50391-3.2266-0.085938-0.99609-0.58984-1.6094-1.6445-1.6328-2.7969-0.070312-4.1289 0.46875-8.0898 1.4531-11.879-4.0195 4.6094-8.7227 8.6289-14.531 11.641-1.0664 0.53906-2.3398 0.48047-3.3359-0.19141-1.0078-0.64844-1.5703-1.7891-1.4883-2.9883 0.30078-4.4883 1.2852-8.6758 2.7461-12.625-5.6875 6.0117-12.203 11.207-20.316 14.617-1.1641 0.49219-2.5078 0.26562-3.457-0.55078-0.96094-0.82812-1.3438-2.1484-1.0195-3.3594 1.3906-5.1953 3.3945-10.02 5.8555-14.578-9.8516 9.6836-20.711 18.277-33.695 24.059-1.2617 0.57422-2.7461 0.27734-3.7305-0.71875-0.96094-1.0078-1.2109-2.4961-0.61328-3.7578 6.1328-12.672 14.746-23.41 24.348-33.227-4.4141 2.3867-9.1562 4.2852-14.316 5.4844-1.2109 0.27734-2.4727-0.14453-3.2656-1.0938-0.80469-0.9375-1.0078-2.2578-0.53906-3.4062 3.3242-7.9805 8.3633-14.426 14.258-20.051-3.875 1.3203-7.9805 2.1133-12.348 2.1133-1.1641 0-2.2578-0.625-2.8438-1.6211-0.60156-1.0078-0.625-2.2578-0.070313-3.2656 2.9297-5.4375 6.8047-9.9609 11.219-13.871-3.6367 0.94922-7.4531 1.4531-11.484 1.3203-1.1055-0.023438-2.125-0.61328-2.7109-1.5469-0.58984-0.92578-0.67187-2.1016-0.22656-3.1094 2.2188-4.9805 5.4609-8.8438 9.2891-11.977-2.3164 0.37109-4.6797 0.58984-7.0938 0.58984-1.8008 0-3.625-0.12109-5.3867-0.35938-1.1406-0.15625-2.125-0.875-2.5938-1.9336-0.45703-1.0547-0.34766-2.2578 0.28906-3.2148 2.3984-3.5156 5.4102-6.625 9.0117-9.2891-1.5469 0.17969-3.1211 0.26562-4.7031 0.26562-3.4062 0-6.7578-0.44531-9.9492-1.332-1.0781-0.28906-1.9219-1.1172-2.2695-2.1836-0.33594-1.0547-0.12109-2.2188 0.57422-3.0859 2.5547-3.1797 5.5078-5.6875 8.6992-7.7031-0.99609 0.058594-2.0156 0.085938-3.0234 0.085938-5.0391 0-9.6484-0.74219-14.102-2.2578-1.0664-0.35938-1.8711-1.2461-2.1484-2.3516-0.27734-1.1055 0.046875-2.2578 0.83984-3.0859 2.8789-2.9766 6.1094-5.293 9.5508-7.1055h-0.96094c-8.7617 0-16.344-1.6445-23.184-5.0156-1.1172-0.53906-1.8125-1.668-1.8477-2.8906-0.023438-1.2344 0.63672-2.375 1.7266-2.9766 4.4531-2.4492 9.0586-4.2344 13.766-5.543-15.938-0.19141-28.98-2.1719-40.848-6.2148-1.3086-0.44531-2.207-1.6797-2.2422-3.0586 0.097657-1.4258 0.94922-2.6758 2.2344-3.1914z"/>
 <path d="m599.89 673.75c74.16 0 134.28-60.121 134.28-134.27 0-74.172-60.133-134.28-134.28-134.28-74.172 0-134.28 60.121-134.28 134.28s60.121 134.27 134.28 134.27zm0-231.84c53.879 0 97.559 43.691 97.559 97.57 0 53.879-43.68 97.559-97.559 97.559-53.879 0-97.57-43.68-97.57-97.559-0.003906-53.875 43.691-97.57 97.57-97.57z"/>
</svg>
